<svg width="100" height="100" viewBox="0 0 100 100" fill="none" xmlns="http://www.w3.org/2000/svg">
<g clip-path="url(#clip0_2_764)">
<path d="M37.6968 43.2319C41.0126 33.4618 53.385 30.8175 60.9071 37.8792C68.555 45.0589 74.2208 51.7168 78.7061 59.624C84.1742 69.2639 79.6771 81.5501 69.3903 85.6742C64.6127 87.5895 60.0024 88.8382 55.0263 89.5583C44.2994 91.1105 34.6021 82.8918 33.8447 72.0796C33.1237 61.7885 34.3926 52.9676 37.6968 43.2319Z" fill="#FFCD5D"/>
<path d="M76.7591 47.2397C85.6366 44.861 91.1151 35.3947 85.5202 28.1033V28.1033C82.1324 23.6883 77.9083 19.9838 73.0889 17.2013C68.2695 14.4188 62.9492 12.6128 57.4318 11.8864C51.9144 11.1601 46.308 11.5275 40.9327 12.9679C35.5573 14.4082 30.5183 16.8931 26.1033 20.2809C21.6883 23.6686 17.9838 27.8928 15.2013 32.7122C12.4188 37.5316 10.6128 42.8519 9.88647 48.3693V48.3693C8.68685 57.4813 18.1645 62.9401 27.042 60.5614L51.9006 53.9005L76.7591 47.2397Z" fill="#E44B60"/>
<ellipse cx="55.9921" cy="27.9556" rx="12" ry="10" transform="rotate(23.4999 55.9921 27.9556)" fill="white"/>
<ellipse cx="29.549" cy="38.9758" rx="6.99764" ry="5.83136" transform="rotate(120 29.549 38.9758)" fill="white"/>
</g>
<defs>
<clipPath id="clip0_2_764">
<rect width="100" height="100" fill="white"/>
</clipPath>
</defs>
</svg>
